<svg width="17" height="20" viewBox="0 0 17 20" fill="none" xmlns="http://www.w3.org/2000/svg">
<path d="M8.3134 20C7.45381 20 6.47299 19.6746 5.3982 19.0329C4.55729 18.5308 3.67719 17.8391 2.91979 17.0851C1.64519 15.785 0.653696 14.1999 0.0457086 12.4946L0 12.3665V2.84257L0.867929 2.84962C1.85004 2.85001 2.82506 2.68338 3.75131 2.35687L3.76967 2.35067C5.22795 1.87822 6.60695 1.18931 7.86048 0.307037L8.29674 0L8.74347 0.291658C10.035 1.13441 11.4189 1.82636 12.868 2.35398C13.5917 2.58776 14.2593 2.74347 14.856 2.8179C15.1064 2.84909 15.3296 2.86489 15.5195 2.86489H15.5197C15.5893 2.86489 15.651 2.86265 15.7046 2.85881L15.7332 2.85635L16.6267 2.72787V12.3661L16.5813 12.494C15.9743 14.2009 14.9826 15.7864 13.7132 17.0788C12.9495 17.8385 12.0697 18.5296 11.2299 19.0313C10.154 19.6742 9.17279 20 8.3134 20ZM8.27154 1.92958C7.02636 2.7414 5.67946 3.38528 4.26574 3.84453C3.4286 4.13835 2.55689 4.3224 1.67242 4.39207L1.57406 4.39986V12.0918L1.58079 12.1098C2.12214 13.5641 2.94724 14.8638 4.03314 15.9725C5.50916 17.4404 7.22889 18.4261 8.3134 18.4261C9.39674 18.4261 11.1166 17.4404 12.5931 15.9732C13.681 14.8645 14.5058 13.5652 15.0461 12.1102L15.0529 12.0922V4.42026L14.9557 4.4115C14.8574 4.40264 14.7593 4.39207 14.6614 4.37979C13.9621 4.29264 13.1918 4.11365 12.3717 3.84784L12.3459 3.83897C10.9648 3.33728 9.63802 2.69702 8.38592 1.92798L8.32835 1.89252L8.27154 1.92958ZM4.29329 10.6709C4.21999 10.598 4.16187 10.5112 4.12231 10.4157C4.08275 10.3202 4.06253 10.2178 4.06283 10.1144C4.06283 9.9042 4.14463 9.70653 4.29329 9.55787C4.44195 9.40921 4.63952 9.3274 4.84981 9.3274C5.06009 9.3274 5.25766 9.40931 5.40632 9.55787L7.44975 11.6013L11.5472 7.50376C11.6959 7.3551 11.8935 7.2733 12.1038 7.2733C12.3141 7.2733 12.5116 7.3551 12.6603 7.50376C12.9671 7.81069 12.9671 8.30996 12.6603 8.61679L7.44975 13.8273L4.29329 10.6709Z" fill="#333333"/>
</svg>
