<svg t="1750339411568" class="icon" viewBox="0 0 1024 1024" version="1.1" xmlns="http://www.w3.org/2000/svg" p-id="33834" width="200" height="200">
    <path d="M288 320h96a32 32 0 0 0 0-64H288a32 32 0 0 0 0 64zM288 448h224a32 32 0 0 0 0-64H288a32 32 0 0 0 0 64zM505.92 768a141.44 141.44 0 0 0 174.72 19.84l64 64A32 32 0 0 0 768 864a32 32 0 0 0 22.72-9.28 32 32 0 0 0 0-45.12l-65.6-65.6a138.24 138.24 0 0 0 21.76-74.56 141.44 141.44 0 0 0-241.6-100.16 141.44 141.44 0 0 0 0.64 198.72z m45.12-155.2a77.76 77.76 0 1 1 0 109.76 77.44 77.44 0 0 1 0-108.8z" fill="#3DAB9A" p-id="33835"></path>
    <path d="M218.88 960h586.24A91.2 91.2 0 0 0 896 868.8V344.96a96 96 0 0 0-27.84-67.52l-180.8-184.32A96 96 0 0 0 618.24 64H218.88A91.2 91.2 0 0 0 128 155.2v713.6A91.2 91.2 0 0 0 218.88 960z m601.28-640H640V137.6h2.24zM192 155.2A27.2 27.2 0 0 1 218.88 128H576v192a64 64 0 0 0 64 64h192v484.8a27.2 27.2 0 0 1-26.88 27.2H218.88a27.2 27.2 0 0 1-26.88-27.2z" fill="#3DAB9A" p-id="33836"></path></svg>