<svg t="1750339475428" class="icon" viewBox="0 0 1024 1024" version="1.1" xmlns="http://www.w3.org/2000/svg" p-id="1256" width="200" height="200"><path d="M300.8 202.666667l-12.8 64h-42.666667v640h533.333334v-640h-42.666667l-12.8-64h119.466667v768h-661.333334v-768h119.466667zM554.666667 640v64H320v-64h234.666667z m149.333333-170.666667v64H320v-64h384zM512 53.333333A96 96 0 0 1 608 149.333333v10.666667h58.24l34.133333 170.666667H323.626667l34.133333-170.666667h58.24V149.333333A96 96 0 0 1 512 53.333333z m0 64A32 32 0 0 0 480 149.333333v74.666667h-69.76l-8.533333 42.666667h220.586666l-8.533333-42.666667H544V149.333333A32 32 0 0 0 512 117.333333z" fill="#3DAB9A" p-id="1257"></path></svg>