<svg t="1750342895688" class="icon" viewBox="0 0 1024 1024" version="1.1" xmlns="http://www.w3.org/2000/svg" p-id="48845" width="200" height="200"><path d="M490.587733 97.525333L195.047467 389.419733 428.736 620.16l99.268267-98.002133 391.0272 386.548266c24.0608 23.693867 62.861867 23.693867 86.922666 0a60.068267 60.068267 0 0 0 0-85.845333L614.797867 436.437333l109.473066-108.050133L490.587733 97.525333z m323.870934 180.5888c-19.326933 19.277867-50.622933 19.277867-69.9488 0L550.875733 84.352c-19.325867-19.275733-19.325867-50.6176 0-69.893333 19.326933-19.2768 50.621867-19.2768 69.947734 0l193.6352 193.639466c19.325867 19.399467 19.325867 50.741333 0 70.017067zM182.090667 453.424l193.509333 193.649067c19.328 19.277867 19.328 50.619733 0 69.8976-19.3248 19.277867-50.6208 19.277867-69.946667 0L112.0192 523.197867c-19.326933-19.277867-19.326933-50.6208 0-69.8976 19.450667-19.277867 50.746667-19.277867 70.072533 0.123733h-0.001066zM0 1024c0-53.9072 46.0992-97.524267 103.1008-97.524267h378.942933c56.877867 0 103.099733 43.733333 103.099734 97.524267H0z" fill="#3DAB9A" p-id="48846"></path></svg>