<svg width="29" height="28" viewBox="0 0 29 28" fill="none" xmlns="http://www.w3.org/2000/svg">
<path d="M27.9399 7.84019C27.9427 7.77493 27.9208 7.71099 27.8784 7.66094L25.4935 1.9C25.0628 0.716981 23.9011 0 22.4933 0H5.84565C4.43784 0 3.33765 0.716981 2.91061 1.84264L0.333843 7.72189C0.333843 7.77925 0.333843 7.77924 0.275939 7.84019C0.00209182 8.65374 -0.0692848 9.52079 0.0678833 10.3675C0.205051 11.2143 0.546704 12.0157 1.06377 12.7035C1.58083 13.3914 2.25799 13.9453 3.03764 14.3182C3.81728 14.691 4.67632 14.8718 5.54165 14.8451C6.35455 14.8454 7.15798 14.6723 7.89736 14.3376C8.63673 14.003 9.29471 13.5146 9.82661 12.9057C10.3528 13.5022 11.0017 13.9804 11.7299 14.308C12.458 14.6356 13.2485 14.8051 14.0482 14.8051C14.848 14.8051 15.6384 14.6356 16.3666 14.308C17.0947 13.9804 17.7437 13.5022 18.2698 12.9057C18.8037 13.5094 19.463 13.9918 20.2026 14.3197C20.9422 14.6477 21.7446 14.8134 22.5548 14.8057C23.4856 14.8064 24.4051 14.6032 25.2474 14.2106C26.1262 13.7514 26.8641 13.0664 27.3837 12.2275C27.9032 11.3887 28.1854 10.4267 28.2005 9.44264C28.2309 8.89615 28.1421 8.34958 27.9399 7.84019ZM24.3281 12.5472C23.7941 12.7989 23.2075 12.9217 22.6163 12.9057C22.0123 12.9166 21.4162 12.7683 20.889 12.476C20.3619 12.1838 19.9226 11.758 19.6161 11.2423C19.5439 11.0989 19.4629 10.96 19.3737 10.8264C19.2484 10.6923 19.0968 10.585 18.9281 10.511C18.7595 10.437 18.5773 10.398 18.3929 10.3962C18.2086 10.39 18.0252 10.424 17.8557 10.4959C17.6862 10.5677 17.5348 10.6757 17.4121 10.8121C17.3229 10.9457 17.2419 11.0846 17.1697 11.2279C16.8497 11.7325 16.4079 12.1502 15.884 12.4431C15.3602 12.7361 14.7709 12.895 14.1695 12.9057C13.5687 12.9041 12.9785 12.7484 12.4566 12.4538C11.9346 12.1591 11.4986 11.7355 11.191 11.2243C11.1309 11.0914 11.0476 10.9701 10.9449 10.8658C10.6856 10.6145 10.3405 10.4688 9.97793 10.4575C9.61534 10.4462 9.26169 10.5702 8.98699 10.8049C8.85102 10.9225 8.7392 11.0649 8.65765 11.2243C8.32962 11.7201 7.88699 12.1312 7.36648 12.4236C6.84597 12.716 6.26258 12.8813 5.6647 12.9057C5.09144 12.9292 4.52176 12.8057 4.0108 12.5472C3.44644 12.2618 2.97152 11.8291 2.6373 11.2959C2.30308 10.7627 2.12228 10.1491 2.11441 9.52151C2.11533 9.1378 2.17762 8.75666 2.29899 8.39226V8.33132L4.80699 2.57038C4.87481 2.37448 5.00955 2.20819 5.18795 2.1002C5.36634 1.99221 5.5772 1.94929 5.78413 1.97887H22.4933C22.7205 1.96097 22.9476 2.01436 23.1425 2.13146C23.3373 2.24856 23.4901 2.42345 23.579 2.63132L25.9676 8.33132V8.44962C26.0884 8.81414 26.1507 9.1952 26.1521 9.57887C26.1575 10.1929 25.9896 10.7961 25.6673 11.3206C25.345 11.8451 24.8812 12.2699 24.3281 12.5472Z" fill="#3DAB9A"/>
<path d="M25.1242 16.8131C24.9889 16.8107 24.8546 16.835 24.7289 16.8845C24.6032 16.934 24.4887 17.0078 24.3921 17.1015C24.2954 17.1953 24.2186 17.3071 24.1659 17.4305C24.1133 17.5539 24.086 17.6865 24.0855 17.8205V25.3165C24.085 25.3877 24.0703 25.4582 24.0421 25.5237C24.0139 25.5892 23.9729 25.6486 23.9214 25.6983C23.8699 25.748 23.8089 25.787 23.742 25.8132C23.6751 25.8394 23.6037 25.8521 23.5318 25.8507H4.43769C4.3661 25.8516 4.29502 25.8385 4.22856 25.8121C4.16209 25.7858 4.10156 25.7466 4.05043 25.697C3.9993 25.6473 3.95859 25.5882 3.93064 25.5229C3.90269 25.4576 3.88806 25.3874 3.88759 25.3165V17.8814C3.87194 17.6186 3.7555 17.3716 3.56209 17.191C3.36868 17.0104 3.11292 16.9098 2.84712 16.9098C2.58131 16.9098 2.32555 17.0104 2.13214 17.191C1.93874 17.3716 1.8223 17.6186 1.80664 17.8814V25.3165C1.81428 25.9865 2.08909 26.6264 2.57113 27.0965C3.05318 27.5666 3.70333 27.8288 4.37978 27.8259H23.4739C23.8118 27.8236 24.1459 27.7553 24.4572 27.6251C24.7685 27.4948 25.0508 27.3051 25.2881 27.0667C25.5253 26.8284 25.7129 26.5461 25.84 26.2359C25.9671 25.9258 26.0313 25.5939 26.0289 25.2592V17.7631C26.0409 17.64 26.0261 17.5158 25.9856 17.3988C25.9452 17.2818 25.8799 17.1747 25.7942 17.0847C25.7085 16.9948 25.6044 16.924 25.4888 16.8771C25.3733 16.8303 25.2489 16.8085 25.1242 16.8131Z" fill="#3DAB9A"/>
<path d="M22.0663 6.76758H5.84577C5.57509 6.76758 5.31551 6.87409 5.12411 7.06368C4.93272 7.25327 4.8252 7.5104 4.8252 7.77852C4.8252 8.04664 4.93272 8.30378 5.12411 8.49337C5.31551 8.68296 5.57509 8.78946 5.84577 8.78946H22.0663C22.337 8.78946 22.5966 8.68296 22.788 8.49337C22.9794 8.30378 23.0869 8.04664 23.0869 7.77852C23.0869 7.5104 22.9794 7.25327 22.788 7.06368C22.5966 6.87409 22.337 6.76758 22.0663 6.76758Z" fill="#3DAB9A"/>
</svg>
