<svg width="38" height="38" viewBox="0 0 38 38" fill="none" xmlns="http://www.w3.org/2000/svg">
<path d="M9.99554 33.5937C9.30025 33.5918 8.63398 33.3174 8.14233 32.8304C7.65069 32.3433 7.37364 31.6834 7.37173 30.9946V12.7941C7.37364 12.1053 7.65069 11.4454 8.14233 10.9583C8.63398 10.4713 9.30025 10.1969 9.99554 10.195H27.4502C28.1455 10.1969 28.8118 10.4713 29.3034 10.9583C29.7951 11.4454 30.0721 12.1053 30.074 12.7941V15.3931L31.6483 16.6944V12.1452C31.6581 11.6303 31.563 11.1188 31.3686 10.6412C31.1742 10.1635 30.8845 9.72968 30.5169 9.36553C30.1493 9.00139 29.7113 8.71445 29.2292 8.52189C28.747 8.32932 28.2306 8.23509 27.7108 8.24482H9.34049C8.82084 8.23559 8.30464 8.33017 7.82271 8.52291C7.34077 8.71566 6.90298 9.00261 6.53548 9.36665C6.16797 9.73069 5.87828 10.1643 5.6837 10.6417C5.48912 11.1191 5.39364 11.6305 5.40297 12.1452V31.6435C5.39364 32.1583 5.48912 32.6696 5.6837 33.147C5.87828 33.6244 6.16797 34.058 6.53548 34.4221C6.90298 34.7861 7.34077 35.0731 7.82271 35.2658C8.30464 35.4585 8.82084 35.5531 9.34049 35.5439H15.9018L13.278 33.5937H9.99554Z" fill="#3DAB9A"/>
<path d="M22.0765 14.0957C19.9484 14.095 17.8678 14.7195 16.0979 15.8901C14.3281 17.0608 12.9484 18.7251 12.1335 20.6725C11.3186 22.62 11.105 24.763 11.5198 26.8307C11.9345 28.8984 12.959 30.7978 14.4636 32.2887C15.9682 33.7795 17.8853 34.795 19.9725 35.2065C22.0597 35.618 24.2233 35.4072 26.1895 34.6006C28.1558 33.794 29.8364 32.428 31.0188 30.6752C32.2012 28.9225 32.8323 26.8617 32.8323 24.7536C32.82 21.9314 31.6829 19.2281 29.6686 17.2321C27.6543 15.2361 24.9257 14.1089 22.0765 14.0957ZM23.7847 33.4542C21.6349 33.881 19.4016 33.5083 17.5116 32.4072C15.6216 31.3062 14.2074 29.5539 13.5392 27.4853C12.0916 23.1834 14.4584 18.5231 18.6565 16.6948C19.7301 16.2181 20.9011 15.9959 22.0765 16.0459C24.282 16.0246 26.4141 16.8301 28.0451 18.3008C29.6761 19.7715 30.6855 21.7986 30.8708 23.9757C31.0586 26.1419 30.4414 28.3015 29.1353 30.0487C27.8292 31.796 25.9239 33.0108 23.7775 33.4649L23.7847 33.4542Z" fill="#3DAB9A"/>
<path d="M21.1501 26.7044L17.741 23.5855L16.1631 25.0159L19.4456 28.1348L21.0198 29.5651L22.4638 28.1348L28.8949 22.0261L27.4509 20.5957L21.1501 26.7044Z" fill="#3DAB9A"/>
</svg>
