<svg width="38" height="38" viewBox="0 0 38 38" fill="none" xmlns="http://www.w3.org/2000/svg">
<path d="M24.2474 9.98085V8.06292L12.0729 7.98047L11.9824 9.90198L24.1569 10.0633C24.1684 10.0643 24.18 10.0629 24.191 10.0592C24.2019 10.0555 24.212 10.0496 24.2205 10.0418C24.229 10.0341 24.2358 10.0246 24.2404 10.0141C24.245 10.0036 24.2474 9.9923 24.2474 9.98085ZM24.0556 9.8733L12.1851 9.71556L12.2539 8.17047L24.0375 8.24575L24.0556 9.8733Z" fill="#3DAB9A"/>
<path d="M24.4178 9.98073V7.88714L11.8742 7.80469L11.7656 10.1026L24.1391 10.2639C24.1766 10.265 24.214 10.2583 24.2487 10.2444C24.2835 10.2304 24.315 10.2094 24.3412 10.1828C24.3673 10.1562 24.3877 10.1245 24.4009 10.0897C24.4141 10.055 24.4198 10.0178 24.4178 9.98073ZM11.9647 9.90186L12.0551 7.98035L24.2477 8.0628V9.98073C24.2478 9.99218 24.2454 10.0035 24.2408 10.014C24.2361 10.0245 24.2294 10.034 24.2208 10.0417C24.2123 10.0495 24.2023 10.0554 24.1913 10.0591C24.1804 10.0628 24.1688 10.0642 24.1572 10.0632L11.9647 9.90186Z" fill="#3DAB9A"/>
<path d="M28.2577 8.56736H25.29V8.06189C25.2652 7.77921 25.1322 7.51665 24.9182 7.32802C24.7042 7.13938 24.4255 7.03897 24.1392 7.04736H12.0552C11.7689 7.03897 11.4901 7.13938 11.2762 7.32802C11.0622 7.51665 10.9291 7.77921 10.9043 8.06189V8.64981H8.20814C6.98128 8.64981 5.98242 9.53529 5.98242 10.6215V33.1132C5.98242 34.1887 6.93785 35.006 8.20814 35.006H28.3445C29.5714 35.006 30.5702 34.1206 30.5702 33.0343V10.5426C30.5036 9.98674 30.2292 9.47569 29.8012 9.11011C29.3732 8.74454 28.8226 8.55091 28.2577 8.56736ZM11.8742 7.78944L24.4179 7.88623V9.99415C24.4179 10.0301 24.4106 10.0656 24.3965 10.0987C24.3824 10.1318 24.3618 10.1618 24.3358 10.1869C24.3098 10.2119 24.2791 10.2316 24.2453 10.2447C24.2115 10.2577 24.1754 10.264 24.1392 10.263L11.7657 10.1017L11.8742 7.78944ZM29.698 33.2208H29.5931C29.5256 33.52 29.3558 33.7869 29.1124 33.9763C28.8691 34.1658 28.5671 34.2661 28.2577 34.2604H8.11766C7.39385 34.2604 6.76414 33.7155 6.76414 33.1132V10.5283C6.78916 10.193 6.94389 9.88017 7.19606 9.65509C7.44823 9.43001 7.77837 9.31004 8.11766 9.32019H10.9043V9.90812C10.93 10.1901 11.0634 10.4518 11.2773 10.6397C11.4912 10.8276 11.7694 10.9275 12.0552 10.9191H24.2478C24.5335 10.9275 24.8117 10.8276 25.0256 10.6397C25.2395 10.4518 25.3729 10.1901 25.3986 9.90812V9.32019H28.3626C28.7054 9.3103 29.0386 9.43323 29.2914 9.66284C29.5441 9.89246 29.6965 10.2107 29.7161 10.5498L29.698 33.2208Z" fill="#3DAB9A"/>
<path d="M28.3446 9.50055H25.5724V9.90206C25.5485 10.233 25.3983 10.5425 25.1522 10.7675C24.9061 10.9926 24.5828 11.1164 24.2479 11.1138H12.0553C11.7188 11.1221 11.3919 11.0021 11.142 10.7787C10.8922 10.5552 10.7385 10.2453 10.7126 9.91281V9.50055H8.11777C7.82544 9.49154 7.54098 9.59525 7.3243 9.78983C7.10761 9.98441 6.9756 10.2547 6.95605 10.5438V33.1287C6.9945 33.4032 7.13479 33.6537 7.34957 33.8313C7.56435 34.0089 7.83822 34.101 8.11777 34.0894H28.2578C28.5495 34.0985 28.8335 33.9953 29.0501 33.8014C29.2666 33.6076 29.399 33.3382 29.4195 33.0498H29.51V10.5438C29.4895 10.2544 29.3567 9.98409 29.1395 9.78959C28.9222 9.59509 28.6373 9.4915 28.3446 9.50055ZM29.3145 32.8455H29.2241V33.0355C29.202 33.2728 29.0894 33.4929 28.9092 33.6508C28.7289 33.8087 28.4946 33.8925 28.2542 33.8851H8.11777C7.88852 33.8963 7.66302 33.8242 7.48372 33.6822C7.30443 33.5403 7.18369 33.3383 7.14425 33.1143V10.5294C7.16712 10.2918 7.2805 10.0717 7.46134 9.91384C7.64217 9.75602 7.87688 9.67234 8.11777 9.67979H10.5244V9.8913C10.5513 10.2732 10.725 10.6304 11.0098 10.8892C11.2946 11.148 11.6688 11.2887 12.0553 11.2822H24.2479C24.6343 11.2887 25.0085 11.148 25.2933 10.8892C25.5782 10.6304 25.7519 10.2732 25.7787 9.8913V9.67979H28.3627C28.6022 9.67812 28.8334 9.76627 29.01 9.92654C29.1865 10.0868 29.2953 10.3073 29.3145 10.5438V32.8455Z" fill="#3DAB9A"/>
<path d="M30.9501 10.5294C30.8794 9.87617 30.5632 9.27312 30.0644 8.84009C29.5656 8.40706 28.9206 8.17575 28.2575 8.19209H25.6699V8.06303C25.643 7.6811 25.4693 7.32392 25.1845 7.06513C24.8997 6.80634 24.5255 6.66565 24.139 6.67209H12.055C11.6686 6.66565 11.2944 6.80634 11.0095 7.06513C10.7247 7.32392 10.551 7.6811 10.5242 8.06303V8.27454H8.20797C6.76035 8.27454 5.59863 9.3285 5.59863 10.6227V33.1144C5.59863 34.4085 6.72054 35.3836 8.20797 35.3836H28.3443C29.792 35.3836 30.9537 34.3296 30.9537 33.0355L30.9501 10.5294ZM30.7619 33.0355C30.7619 34.2328 29.6762 35.1864 28.3443 35.1864H8.20797C6.87616 35.1936 5.79044 34.3153 5.79044 33.1144V10.6227C5.79044 9.42171 6.87616 8.47171 8.20797 8.47171H10.7123V8.06303C10.7382 7.73057 10.8919 7.42063 11.1418 7.19716C11.3916 6.97369 11.7185 6.85375 12.055 6.86209H24.139C24.4755 6.85375 24.8024 6.97369 25.0523 7.19716C25.3021 7.42063 25.4558 7.73057 25.4817 8.06303V8.38209H28.2575C28.8715 8.36303 29.4702 8.57381 29.9343 8.97243C30.3984 9.37106 30.6939 9.92826 30.7619 10.533V33.0355Z" fill="#3DAB9A"/>
<path d="M28.3441 9.32088H25.3801V9.9088C25.3528 10.1864 25.2212 10.4437 25.0114 10.6296C24.8016 10.8156 24.5288 10.9166 24.2473 10.9126H12.0547C11.769 10.921 11.4907 10.8211 11.2769 10.6332C11.063 10.4453 10.9296 10.1837 10.9039 9.90163V9.32088H8.1172C7.77439 9.31099 7.4412 9.43391 7.18845 9.66353C6.9357 9.89314 6.78331 10.2113 6.76367 10.5505V33.1354C6.76367 33.7377 7.40786 34.2826 8.1172 34.2826H28.2572C28.5667 34.2883 28.8686 34.188 29.112 33.9985C29.3553 33.8091 29.5251 33.5422 29.5926 33.243H29.6976V10.5433C29.6761 10.2054 29.523 9.88905 29.2704 9.66095C29.0178 9.43285 28.6857 9.31091 28.3441 9.32088ZM29.5094 33.0422H29.4189C29.3985 33.3306 29.2661 33.6 29.0495 33.7938C28.8329 33.9877 28.5489 34.0909 28.2572 34.0818H8.1172C7.83764 34.0934 7.56377 34.0013 7.34899 33.8237C7.13421 33.6461 6.99392 33.3956 6.95548 33.1211V10.5362C6.97503 10.2471 7.10704 9.97682 7.32372 9.78224C7.54041 9.58766 7.82486 9.48395 8.1172 9.49295H10.7121V9.89446C10.7335 10.2301 10.8852 10.5445 11.1356 10.7718C11.3859 10.999 11.7153 11.1214 12.0547 11.1133H24.2473C24.5836 11.1208 24.91 11.0005 25.1596 10.7773C25.4093 10.554 25.5632 10.2445 25.59 9.91239V9.50012H28.3621C28.6549 9.49108 28.9397 9.59467 29.157 9.78917C29.3743 9.98366 29.507 10.254 29.5275 10.5433L29.5094 33.0422Z" fill="#3DAB9A"/>
<path d="M28.2571 8.38173H25.4813V8.06268C25.4554 7.73022 25.3017 7.42028 25.0519 7.19681C24.802 6.97334 24.4751 6.8534 24.1386 6.86174H12.0546C11.7181 6.8534 11.3912 6.97334 11.1414 7.19681C10.8915 7.42028 10.7378 7.73022 10.7119 8.06268V8.4606H8.20756C6.8649 8.4606 5.79004 9.42136 5.79004 10.6115V33.114C5.79004 34.3149 6.87575 35.1932 8.20756 35.1932H28.3439C29.6866 35.1932 30.7615 34.2325 30.7615 33.0423V10.5434C30.6961 9.93672 30.4017 9.37689 29.9373 8.97604C29.4729 8.57519 28.8728 8.36292 28.2571 8.38173ZM30.5697 33.0351C30.5697 34.1106 29.5708 35.0068 28.3439 35.0068H8.20756C6.93728 35.0068 5.98185 34.1931 5.98185 33.114V10.6223C5.98185 9.54683 6.98071 8.6506 8.20756 8.6506H10.9038V8.06268C10.9286 7.78 11.0616 7.51744 11.2756 7.32881C11.4896 7.14017 11.7683 7.03976 12.0546 7.04815H24.1386C24.4249 7.03976 24.7036 7.14017 24.9176 7.32881C25.1316 7.51744 25.2646 7.78 25.2895 8.06268V8.56815H28.2571C28.822 8.5517 29.3726 8.74532 29.8006 9.1109C30.2286 9.47648 30.503 9.98753 30.5697 10.5434V33.0351Z" fill="#3DAB9A"/>
<path d="M24.1966 24.0869L24.3088 23.9507C24.9917 23.1288 25.3374 22.0825 25.277 21.0197C25.2167 19.9569 24.7547 18.9556 23.983 18.2148C23.0982 17.3694 21.9155 16.8987 20.6861 16.9027C20.078 16.8948 19.4743 17.006 18.9097 17.2299C18.3452 17.4538 17.8309 17.7861 17.3964 18.2076C16.9592 18.5946 16.6085 19.0678 16.3667 19.5969C16.1249 20.1259 15.9973 20.6992 15.9922 21.2799C15.9918 21.856 16.1144 22.4257 16.352 22.9515C16.5897 23.4773 16.937 23.9473 17.371 24.3307C18.2694 25.1603 19.4472 25.6293 20.6752 25.6463C21.7153 25.6526 22.73 25.3284 23.5705 24.7214L23.6971 24.6282L25.8686 26.6573C25.9546 26.7238 26.0598 26.7615 26.169 26.7648C26.2782 26.7622 26.3837 26.7245 26.4693 26.6573C26.5106 26.6258 26.5441 26.5853 26.5671 26.539C26.5901 26.4927 26.6021 26.4418 26.6021 26.3902C26.6021 26.3386 26.5901 26.2877 26.5671 26.2414C26.5441 26.195 26.5106 26.1546 26.4693 26.1231L24.1966 24.0869ZM23.3823 23.8826C22.6406 24.5735 21.6608 24.9581 20.6427 24.9581C19.6245 24.9581 18.6447 24.5735 17.903 23.8826C17.5372 23.5492 17.2446 23.1449 17.0435 22.6946C16.8424 22.2444 16.7371 21.7579 16.7341 21.2656C16.7272 20.7707 16.828 20.2801 17.0298 19.8273C17.2315 19.3744 17.5293 18.97 17.903 18.6414C18.6579 17.9438 19.6537 17.5589 20.6861 17.566C21.1991 17.5511 21.7099 17.6387 22.188 17.8235C22.6661 18.0082 23.1018 18.2864 23.4691 18.6414C23.8172 18.9867 24.0916 19.3977 24.2762 19.8501C24.4608 20.3025 24.5517 20.787 24.5436 21.2748C24.5355 21.7627 24.4285 22.244 24.229 22.6901C24.0295 23.1362 23.7416 23.538 23.3823 23.8718V23.8826Z" fill="#3DAB9A"/>
<path d="M23.3395 18.7848C22.9902 18.4444 22.5753 18.1769 22.1197 17.9983C21.664 17.8197 21.1767 17.7336 20.6868 17.7452C19.7012 17.7447 18.7525 18.1165 18.034 18.7848C17.6774 19.0932 17.3929 19.4749 17.2004 19.9033C17.0079 20.3318 16.912 20.7966 16.9193 21.2655C16.9245 21.733 17.026 22.1945 17.2176 22.6217C17.4093 23.049 17.6871 23.4329 18.034 23.7499C18.7429 24.4046 19.676 24.7686 20.6451 24.7686C21.6143 24.7686 22.5474 24.4046 23.2563 23.7499C23.5972 23.433 23.8704 23.0515 24.0597 22.628C24.249 22.2046 24.3505 21.7478 24.3583 21.2848C24.366 20.8217 24.2799 20.3619 24.1049 19.9324C23.9299 19.503 23.6696 19.1127 23.3395 18.7848ZM23.126 23.6137C22.4544 24.2408 21.5663 24.5902 20.6433 24.5902C19.7204 24.5902 18.8322 24.2408 18.1607 23.6137C17.8321 23.3146 17.5691 22.9518 17.388 22.5479C17.2068 22.144 17.1113 21.7075 17.1075 21.2655C17.1001 20.8224 17.1906 20.3829 17.3725 19.978C17.5544 19.573 17.8234 19.2123 18.1607 18.921C18.8458 18.2816 19.7527 17.9273 20.694 17.9316C21.1616 17.9181 21.6271 17.9985 22.0624 18.168C22.4978 18.3374 22.894 18.5923 23.2273 18.9174C23.5396 19.2277 23.7857 19.597 23.9511 20.0034C24.1164 20.4098 24.1976 20.8449 24.1899 21.283C24.1821 21.7211 24.0855 22.1531 23.9059 22.5535C23.7262 22.9539 23.4672 23.3144 23.1441 23.6137H23.126Z" fill="#3DAB9A"/>
<path d="M24.7076 24.0476C25.4042 23.1495 25.7425 22.0287 25.6577 20.8992C25.5729 19.7697 25.071 18.7107 24.2479 17.9246C23.2898 17.0201 22.0176 16.5144 20.694 16.5121C20.0363 16.5035 19.3834 16.6239 18.7728 16.8663C18.1623 17.1087 17.6062 17.4684 17.1365 17.9246C16.666 18.3473 16.2886 18.8615 16.0277 19.4351C15.7668 20.0087 15.628 20.6295 15.6201 21.2586C15.6185 21.8897 15.753 22.514 16.0145 23.0895C16.276 23.6651 16.6585 24.1787 17.1365 24.5961C18.0035 25.4068 19.125 25.8986 20.3138 25.9893C21.5026 26.0799 22.6868 25.7641 23.6689 25.0944L25.6087 26.9084C25.7616 27.0449 25.9602 27.1205 26.166 27.1205C26.3719 27.1205 26.5705 27.0449 26.7234 26.9084C26.8037 26.8431 26.8684 26.7611 26.9128 26.6681C26.9572 26.5751 26.9802 26.4735 26.9802 26.3706C26.9802 26.2678 26.9572 26.1662 26.9128 26.0732C26.8684 25.9802 26.8037 25.8981 26.7234 25.8329L24.7076 24.0476ZM26.5931 26.7901C26.4756 26.8941 26.3236 26.9517 26.166 26.9517C26.0085 26.9517 25.8564 26.8941 25.739 26.7901L23.6834 24.8686C22.735 25.5561 21.5735 25.8927 20.4006 25.82C19.2277 25.7473 18.1176 25.2699 17.2632 24.4706C16.8054 24.0694 16.4394 23.5758 16.1898 23.0231C15.9401 22.4704 15.8125 21.8712 15.8156 21.2657C15.821 20.6621 15.9523 20.0661 16.2015 19.5151C16.4506 18.9642 16.8121 18.4703 17.2632 18.0644C17.7151 17.6253 18.2502 17.2792 18.8378 17.046C19.4255 16.8128 20.0538 16.6972 20.6868 16.7057C21.9621 16.7046 23.1887 17.1913 24.1104 18.0644C24.9205 18.8385 25.4059 19.8869 25.4696 21.0001C25.5334 22.1132 25.1707 23.2093 24.4542 24.0691L26.5931 25.9906C26.6535 26.0387 26.7022 26.0995 26.7357 26.1687C26.7692 26.2379 26.7866 26.3136 26.7866 26.3904C26.7866 26.4671 26.7692 26.5428 26.7357 26.612C26.7022 26.6812 26.6535 26.742 26.5931 26.7901Z" fill="#3DAB9A"/>
<path d="M23.4696 18.6415C23.1023 18.2865 22.6666 18.0083 22.1885 17.8236C21.7103 17.6388 21.1996 17.5512 20.6866 17.5661C19.6542 17.559 18.6584 17.9439 17.9035 18.6415C17.5312 18.9689 17.2342 19.3716 17.0325 19.8225C16.8308 20.2733 16.7292 20.7618 16.7346 21.2549C16.7376 21.7473 16.8429 22.2337 17.044 22.684C17.2451 23.1342 17.5377 23.5386 17.9035 23.8719C18.6452 24.5628 19.625 24.9475 20.6431 24.9475C21.6613 24.9475 22.6411 24.5628 23.3828 23.8719C23.7421 23.5382 24.03 23.1363 24.2295 22.6902C24.429 22.2441 24.536 21.7628 24.5441 21.2749C24.5522 20.7871 24.4613 20.3026 24.2767 19.8502C24.0921 19.3978 23.8177 18.9868 23.4696 18.6415ZM23.2561 23.7393C22.5472 24.394 21.6141 24.758 20.645 24.758C19.6758 24.758 18.7427 24.394 18.0338 23.7393C17.6869 23.4223 17.4091 23.0384 17.2174 22.6111C17.0258 22.1839 16.9243 21.7224 16.9191 21.2549C16.9118 20.786 17.0077 20.3212 17.2002 19.8927C17.3927 19.4643 17.6772 19.0826 18.0338 18.7742C18.7523 18.1059 19.701 17.7341 20.6866 17.7346C21.1765 17.723 21.6638 17.8091 22.1195 17.9877C22.5752 18.1663 22.99 18.4337 23.3393 18.7742C23.6711 19.1023 23.9328 19.4932 24.1088 19.9237C24.2848 20.3541 24.3715 20.8153 24.3637 21.2796C24.3559 21.7439 24.2538 22.202 24.0636 22.6264C23.8733 23.0508 23.5987 23.433 23.2561 23.75V23.7393Z" fill="#3DAB9A"/>
<path d="M24.4541 24.0689C25.1707 23.209 25.5333 22.113 25.4696 20.9999C25.4058 19.8867 24.9204 18.8383 24.1103 18.0642C23.1886 17.1911 21.9621 16.7044 20.6867 16.7055C20.0538 16.6969 19.4254 16.8126 18.8378 17.0458C18.2502 17.279 17.715 17.6251 17.2631 18.0642C16.812 18.4701 16.4505 18.964 16.2014 19.5149C15.9523 20.0659 15.8209 20.6619 15.8155 21.2655C15.8125 21.871 15.9401 22.4702 16.1897 23.0229C16.4394 23.5756 16.8053 24.0691 17.2631 24.4704C18.1175 25.2697 19.2276 25.7471 20.4005 25.8198C21.5734 25.8925 22.735 25.5559 23.6833 24.8684L25.7389 26.7899C25.8564 26.8939 26.0084 26.9514 26.166 26.9514C26.3235 26.9514 26.4756 26.8939 26.593 26.7899C26.6534 26.7418 26.7021 26.681 26.7356 26.6118C26.7691 26.5426 26.7865 26.4669 26.7865 26.3901C26.7865 26.3134 26.7691 26.2377 26.7356 26.1685C26.7021 26.0993 26.6534 26.0385 26.593 25.9904L24.4541 24.0689ZM26.4663 26.6572C26.3807 26.7244 26.2752 26.7622 26.166 26.7648C26.0568 26.7614 25.9516 26.7238 25.8656 26.6572L23.6941 24.6282L23.5675 24.7214C22.7271 25.3284 21.7123 25.6525 20.6722 25.6463C19.4454 25.6283 18.2691 25.1594 17.3717 24.3306C16.9338 23.9466 16.5834 23.4747 16.3438 22.9462C16.1042 22.4178 15.9808 21.8448 15.982 21.2655C15.9871 20.6848 16.1147 20.1115 16.3565 19.5825C16.5983 19.0534 16.949 18.5802 17.3861 18.1933C17.8206 17.7717 18.3349 17.4395 18.8995 17.2155C19.4641 16.9916 20.0678 16.8804 20.6759 16.8884C21.9053 16.8843 23.0879 17.355 23.9728 18.2004C24.7445 18.9412 25.2064 19.9426 25.2668 21.0053C25.3271 22.0681 24.9815 23.1144 24.2985 23.9363L24.1863 24.0725L26.4555 26.1087C26.4968 26.1402 26.5302 26.1807 26.5532 26.227C26.5763 26.2733 26.5882 26.3242 26.5882 26.3758C26.5882 26.4274 26.5763 26.4783 26.5532 26.5246C26.5302 26.571 26.4968 26.6114 26.4555 26.6429L26.4663 26.6572Z" fill="#3DAB9A"/>
<path d="M25.7388 14.3398H9.38796C9.28765 14.3398 9.19146 14.3793 9.12053 14.4496C9.04961 14.5198 9.00977 14.6151 9.00977 14.7145C9.00977 14.8138 9.04961 14.9091 9.12053 14.9794C9.19146 15.0496 9.28765 15.0891 9.38796 15.0891H25.7388C25.8391 15.0891 25.9353 15.0496 26.0062 14.9794C26.0772 14.9091 26.117 14.8138 26.117 14.7145C26.117 14.6151 26.0772 14.5198 26.0062 14.4496C25.9353 14.3793 25.8391 14.3398 25.7388 14.3398Z" fill="#3DAB9A"/>
<path d="M25.7388 13.9588H9.38793C9.28493 13.9517 9.18156 13.9657 9.08425 13.9999C8.98693 14.0341 8.89776 14.0877 8.82226 14.1575C8.74677 14.2272 8.68657 14.3116 8.64541 14.4054C8.60425 14.4992 8.58301 14.6004 8.58301 14.7027C8.58301 14.805 8.60425 14.9061 8.64541 14.9999C8.68657 15.0937 8.74677 15.1781 8.82226 15.2479C8.89776 15.3177 8.98693 15.3713 9.08425 15.4055C9.18156 15.4397 9.28493 15.4536 9.38793 15.4466H25.7388C25.8418 15.4536 25.9452 15.4397 26.0425 15.4055C26.1398 15.3713 26.229 15.3177 26.3045 15.2479C26.38 15.1781 26.4402 15.0937 26.4813 14.9999C26.5225 14.9061 26.5437 14.805 26.5437 14.7027C26.5437 14.6004 26.5225 14.4992 26.4813 14.4054C26.4402 14.3116 26.38 14.2272 26.3045 14.1575C26.229 14.0877 26.1398 14.0341 26.0425 13.9999C25.9452 13.9657 25.8418 13.9517 25.7388 13.9588ZM25.7388 15.2637H9.38793C9.30975 15.2699 9.23112 15.26 9.15699 15.2346C9.08286 15.2093 9.01483 15.1689 8.9572 15.1162C8.89957 15.0635 8.85358 14.9996 8.82213 14.9284C8.79067 14.8572 8.77443 14.7804 8.77443 14.7027C8.77443 14.625 8.79067 14.5481 8.82213 14.477C8.85358 14.4058 8.89957 14.3418 8.9572 14.2891C9.01483 14.2364 9.08286 14.1961 9.15699 14.1707C9.23112 14.1454 9.30975 14.1355 9.38793 14.1417H25.7388C25.817 14.1355 25.8956 14.1454 25.9697 14.1707C26.0439 14.1961 26.1119 14.2364 26.1695 14.2891C26.2271 14.3418 26.2731 14.4058 26.3046 14.477C26.3361 14.5481 26.3523 14.625 26.3523 14.7027C26.3523 14.7804 26.3361 14.8572 26.3046 14.9284C26.2731 14.9996 26.2271 15.0635 26.1695 15.1162C26.1119 15.1689 26.0439 15.2093 25.9697 15.2346C25.8956 15.26 25.817 15.2699 25.7388 15.2637Z" fill="#3DAB9A"/>
<path d="M25.7388 14.1424H9.38792C9.30973 14.1362 9.2311 14.1461 9.15697 14.1715C9.08284 14.1969 9.01482 14.2372 8.95719 14.2899C8.89955 14.3426 8.85356 14.4066 8.82211 14.4777C8.79065 14.5489 8.77441 14.6258 8.77441 14.7035C8.77441 14.7811 8.79065 14.858 8.82211 14.9292C8.85356 15.0003 8.89955 15.0643 8.95719 15.117C9.01482 15.1697 9.08284 15.21 9.15697 15.2354C9.2311 15.2608 9.30973 15.2707 9.38792 15.2645H25.7388C25.817 15.2707 25.8956 15.2608 25.9697 15.2354C26.0438 15.21 26.1119 15.1697 26.1695 15.117C26.2271 15.0643 26.2731 15.0003 26.3046 14.9292C26.336 14.858 26.3523 14.7811 26.3523 14.7035C26.3523 14.6258 26.336 14.5489 26.3046 14.4777C26.2731 14.4066 26.2271 14.3426 26.1695 14.2899C26.1119 14.2372 26.0438 14.1969 25.9697 14.1715C25.8956 14.1461 25.817 14.1362 25.7388 14.1424ZM25.7388 15.0781H9.38792C9.28761 15.0781 9.19142 15.0386 9.12049 14.9684C9.04957 14.8981 9.00972 14.8028 9.00972 14.7035C9.00972 14.6041 9.04957 14.5088 9.12049 14.4386C9.19142 14.3683 9.28761 14.3288 9.38792 14.3288H25.7388C25.8391 14.3288 25.9353 14.3683 26.0062 14.4386C26.0771 14.5088 26.117 14.6041 26.117 14.7035C26.117 14.8028 26.0771 14.8981 26.0062 14.9684C25.9353 15.0386 25.8391 15.0781 25.7388 15.0781Z" fill="#3DAB9A"/>
<path d="M14.0272 18.9023H9.32244C8.92269 18.9023 8.59863 19.2233 8.59863 19.6193C8.59863 20.0153 8.92269 20.3363 9.32244 20.3363H14.0272C14.427 20.3363 14.751 20.0153 14.751 19.6193C14.751 19.2233 14.427 18.9023 14.0272 18.9023Z" fill="#3DAB9A"/>
<path d="M15.1129 23.7891H9.32244C8.92269 23.7891 8.59863 24.1101 8.59863 24.506C8.59863 24.902 8.92269 25.223 9.32244 25.223H15.1129C15.5127 25.223 15.8367 24.902 15.8367 24.506C15.8367 24.1101 15.5127 23.7891 15.1129 23.7891Z" fill="#3DAB9A"/>
<path d="M25.9701 28.6797H9.32244C8.92269 28.6797 8.59863 29.0007 8.59863 29.3967C8.59863 29.7926 8.92269 30.1136 9.32244 30.1136H25.9701C26.3698 30.1136 26.6939 29.7926 26.6939 29.3967C26.6939 29.0007 26.3698 28.6797 25.9701 28.6797Z" fill="#3DAB9A"/>
</svg>
