<svg width="26" height="29" viewBox="0 0 26 29" fill="none" xmlns="http://www.w3.org/2000/svg">
<path d="M21.3379 3.5918V5.38425H23.5528V26.8901H2.14248V5.38425H4.30305V3.5918H0V28.6826H25.6952V3.5918H21.3379Z" fill="#3DAB9A"/>
<path d="M20.6605 12.5547H18.9414V24.202H20.6605V12.5547Z" fill="#3DAB9A"/>
<path d="M20.1767 1.79572H16.2572C16.0246 1.37817 15.7037 1.01531 15.3164 0.731938C14.9292 0.448567 14.4847 0.251372 14.0134 0.153833C12.1062 -0.340884 10.0325 0.397607 9.34125 1.79572H5.51953V7.17308H20.1767V1.79572ZM17.7338 5.38063H7.96239V3.58817H11.6285V2.69195C11.6285 2.19723 12.175 1.79572 12.8481 1.79572C13.5212 1.79572 14.0713 2.19723 14.0713 2.69195V3.58817H17.7338V5.38063Z" fill="#3DAB9A"/>
<path d="M6.0042 17.9277H4.28516V24.2013H6.0042V17.9277Z" fill="#3DAB9A"/>
<path d="M10.8909 11.6582H9.17188V24.2018H10.8909V11.6582Z" fill="#3DAB9A"/>
<path d="M15.7757 9.86523H14.0566V24.2013H15.7757V9.86523Z" fill="#3DAB9A"/>
</svg>
