<svg width="14" height="16" viewBox="0 0 14 16" fill="none" xmlns="http://www.w3.org/2000/svg">
<path fill-rule="evenodd" clip-rule="evenodd" d="M12.0114 7.04H13.3636C13.7156 7.04 14 7.326 14 7.68V15.36C14 15.714 13.7156 16 13.3636 16H0.636364C0.284375 16 0 15.714 0 15.36V7.68C0 7.326 0.284375 7.04 0.636364 7.04H1.98864V2.56C1.98864 1.146 3.12812 0 4.53409 0H9.46591C10.8719 0 12.0114 1.146 12.0114 2.56V7.04ZM4.53551 1.44C3.92102 1.44 3.42188 1.942 3.42188 2.56V7.04H10.581V2.56C10.581 1.942 10.0818 1.44 9.46733 1.44H4.53551ZM12.57 14.56H1.43359V8.48H12.57V14.56ZM6.4446 12.84V11.78C6.20398 11.606 6.04688 11.322 6.04688 11C6.04688 10.47 6.47443 10.04 7.00142 10.04C7.52841 10.04 7.95597 10.47 7.95597 11C7.95597 11.322 7.79886 11.606 7.55824 11.78V12.84C7.55824 12.928 7.48665 13 7.39915 13H6.60369C6.51619 13 6.4446 12.928 6.4446 12.84Z" fill="black"/>
</svg>
