<svg width="14" height="22" viewBox="0 0 14 22" fill="none" xmlns="http://www.w3.org/2000/svg">
<path d="M10.1913 0.466797H3.80852C1.70848 0.466797 0 2.17527 0 4.27532V17.7263C0 19.8263 1.70848 21.5348 3.80852 21.5348H10.1913C12.2914 21.5348 13.9998 19.8263 13.9998 17.7263V4.27532C13.9999 2.17527 12.2914 0.466797 10.1913 0.466797ZM12.7303 17.7263C12.7303 19.1263 11.5913 20.2653 10.1913 20.2653H3.80852C2.40853 20.2653 1.26952 19.1263 1.26952 17.7263V4.27532C1.26952 2.87533 2.40853 1.73629 3.80852 1.73629H5.12496C5.12848 2.0838 5.41073 2.36465 5.75906 2.36465H8.24074C8.5891 2.36465 8.87133 2.0838 8.87484 1.73629H10.1913C11.5913 1.73629 12.7303 2.87531 12.7303 4.27532V17.7263H12.7303Z" fill="#333333"/>
<path d="M8.24144 18.248H5.75976C5.40923 18.248 5.125 18.5323 5.125 18.8828C5.125 19.2334 5.4092 19.5176 5.75976 19.5176H8.24144C8.59197 19.5176 8.87619 19.2334 8.87619 18.8828C8.87619 18.5323 8.59197 18.248 8.24144 18.248Z" fill="#333333"/>
</svg>
