<svg t="1750341345706" class="icon" viewBox="0 0 1024 1024" version="1.1" xmlns="http://www.w3.org/2000/svg" p-id="42801" width="200" height="200"><path d="M789.333 64H192c-72.533 0-128 55.467-128 128v640c0 72.533 55.467 128 128 128h213.333L320 896H213.333C166.4 896 128 857.6 128 810.667V213.333C128 166.4 166.4 128 213.333 128H780.8c46.933 0 85.333 38.4 85.333 85.333v85.334l51.2 42.666V192c0-72.533-55.466-128-128-128z m102.4 516.267c12.8 145.066-85.333 281.6-230.4 311.466-145.066 29.867-285.866-55.466-332.8-196.266s29.867-294.4 166.4-354.134C529.067 324.267 567.467 320 605.867 320c149.333 0 273.066 110.933 285.866 260.267zM605.867 256C413.867 256 256 413.867 256 605.867s157.867 349.866 349.867 349.866 349.866-157.866 349.866-349.866S802.133 256 605.867 256zM780.8 469.333L576 669.867l-110.933-102.4-51.2 46.933 106.666 102.4 51.2 46.933 46.934-46.933 209.066-200.533-46.933-46.934z" p-id="42802" fill="#3DAB9A"></path></svg>