<svg width="19" height="19" viewBox="0 0 19 19" fill="none" xmlns="http://www.w3.org/2000/svg">
<path d="M4.92285 4.75C4.92285 6.00978 5.4233 7.21796 6.31409 8.10876C7.20489 8.99956 8.41307 9.5 9.67285 9.5C10.9326 9.5 12.1408 8.99956 13.0316 8.10876C13.9224 7.21796 14.4229 6.00978 14.4229 4.75C14.4229 3.49022 13.9224 2.28204 13.0316 1.39124C12.1408 0.500445 10.9326 0 9.67285 0C8.41307 0 7.20489 0.500445 6.31409 1.39124C5.4233 2.28204 4.92285 3.49022 4.92285 4.75Z" fill="#3DAB9A"/>
<path d="M16.4957 14.0773C15.8048 12.1773 14.8548 10.6227 13.5594 9.5C12.4366 10.7955 10.9684 11.5727 9.50027 11.5727C8.03208 11.5727 6.5639 10.8818 5.44118 9.5C4.23208 10.6227 3.19572 12.1773 2.50481 14.0773C2.15936 15.2 1.8139 15.9773 1.72754 17.2727C1.72754 18.1364 2.67754 19 3.45481 19H15.5457C16.323 19 17.273 18.1364 17.273 17.2727C17.1866 15.9773 16.8412 15.2 16.4957 14.0773Z" fill="#3DAB9A"/>
</svg>
