<svg t="1750339464036" class="icon" viewBox="0 0 1024 1024" version="1.1" xmlns="http://www.w3.org/2000/svg" p-id="1108" width="200" height="200"><path d="M224 412.8V864h576V412.8c-10.346667 2.090667-21.034667 3.2-32 3.2a159.765333 159.765333 0 0 1-128-64 159.765333 159.765333 0 0 1-128 64 159.765333 159.765333 0 0 1-128-64 159.765333 159.765333 0 0 1-128 64 160.725333 160.725333 0 0 1-32-3.2zM160 384a159.765333 159.765333 0 0 1-64-128V96h832V256a159.765333 159.765333 0 0 1-64 128v544h-704V384z m512-128a96 96 0 1 0 192 0V160h-192V256z m-64 0V160h-192V256a96 96 0 1 0 192 0z m-256-96h-192V256a96 96 0 1 0 192 0V160zM661.333333 554.666667h64v128h-64v-128z" fill="#3DAB9A" p-id="1109"></path></svg>