<svg width="27" height="24" viewBox="0 0 27 24" fill="none" xmlns="http://www.w3.org/2000/svg">
<path d="M1.94101 23.4498H25.3997C25.6821 23.45 25.9534 23.3411 26.1561 23.1463C26.3588 22.9516 26.4769 22.6862 26.4854 22.4066V18.664C26.4645 17.768 26.086 16.9167 25.4328 16.2965C24.7796 15.6763 23.9049 15.3378 23.0002 15.3551H18.5705C18.6393 14.2581 19.0374 12.4872 19.4174 12.0785C20.5598 10.6965 21.2121 8.981 21.274 7.19588C21.2633 6.25675 21.0528 5.3304 20.6562 4.47733C20.2595 3.62425 19.6858 2.86363 18.9722 2.24512C17.5138 0.979012 15.6096 0.334784 13.674 0.452672C11.7287 0.32826 9.81303 0.972833 8.34673 2.24512C7.62944 2.87394 7.05524 3.64657 6.66217 4.51182C6.2691 5.37707 6.06614 6.31518 6.06673 7.26399C6.14778 9.04394 6.81226 10.7492 7.95949 12.1215C8.32139 12.5123 8.71225 14.2725 8.77015 15.373H4.32596C3.87352 15.3645 3.42385 15.445 3.00303 15.6098C2.58221 15.7747 2.1986 16.0206 1.87444 16.3334C1.55027 16.6462 1.29199 17.0196 1.11456 17.4319C0.937134 17.8443 0.84409 18.2874 0.84082 18.7357V22.4066C0.849341 22.6887 0.969467 22.9562 1.17529 23.1514C1.3811 23.3465 1.65612 23.4537 1.94101 23.4498ZM3.02673 21.3634V18.7357C3.03002 18.5719 3.06587 18.4103 3.13222 18.2601C3.19858 18.11 3.29414 17.9743 3.41344 17.8608C3.53275 17.7473 3.67347 17.6582 3.82756 17.5985C3.98165 17.5389 4.14609 17.5099 4.31149 17.5132H9.52292C9.69724 17.5141 9.86931 17.4743 10.0252 17.3971C10.1811 17.3198 10.3165 17.2074 10.4204 17.0687C10.735 16.6508 10.9255 16.1541 10.9705 15.6347C10.9742 15.5966 10.9742 15.5582 10.9705 15.52C10.9705 14.8604 10.6629 11.9351 9.65682 10.8597C8.81438 9.84472 8.32565 8.58726 8.26349 7.27475C8.26239 6.61828 8.40218 5.96909 8.67359 5.3702C8.945 4.77131 9.34183 4.23641 9.83777 3.80097C10.3468 3.35644 10.9403 3.0171 11.5836 2.80287C12.2268 2.58864 12.9067 2.50383 13.5835 2.55343C13.6377 2.55701 13.6921 2.55701 13.7463 2.55343C14.4183 2.50411 15.0935 2.58741 15.7328 2.79848C16.372 3.00956 16.9626 3.34421 17.4703 3.78305C17.9602 4.20489 18.3556 4.72356 18.6311 5.30576C18.9066 5.88795 19.0561 6.52079 19.07 7.16362C19.0171 8.47239 18.5399 9.72945 17.7092 10.7485C16.6886 11.8921 16.3846 14.7923 16.3521 15.4555C16.3484 15.5008 16.3484 15.5464 16.3521 15.5917C16.4057 16.1004 16.5956 16.5855 16.9022 16.997C17.0066 17.1359 17.1426 17.2486 17.2992 17.3258C17.4557 17.403 17.6284 17.4427 17.8033 17.4415H23.0147C23.1813 17.4363 23.3473 17.4638 23.5031 17.5226C23.6588 17.5814 23.8013 17.6702 23.9221 17.7839C24.043 17.8976 24.1399 18.034 24.2071 18.185C24.2744 18.3361 24.3107 18.4989 24.314 18.664V21.3634H3.02673Z" fill="#3DAB9A"/>
</svg>
