<svg width="38" height="38" viewBox="0 0 38 38" fill="none" xmlns="http://www.w3.org/2000/svg">
<path d="M6.94101 29.4498H30.3997C30.6821 29.45 30.9534 29.3411 31.1561 29.1463C31.3588 28.9516 31.4769 28.6862 31.4854 28.4066V24.664C31.4645 23.768 31.086 22.9167 30.4328 22.2965C29.7796 21.6763 28.9049 21.3378 28.0002 21.3551H23.5705C23.6393 20.2581 24.0374 18.4872 24.4174 18.0785C25.5598 16.6965 26.2121 14.981 26.274 13.1959C26.2633 12.2567 26.0528 11.3304 25.6562 10.4773C25.2595 9.62425 24.6858 8.86363 23.9722 8.24512C22.5138 6.97901 20.6096 6.33478 18.674 6.45267C16.7287 6.32826 14.813 6.97283 13.3467 8.24512C12.6294 8.87394 12.0552 9.64657 11.6622 10.5118C11.2691 11.3771 11.0661 12.3152 11.0667 13.264C11.1478 15.0439 11.8123 16.7492 12.9595 18.1215C13.3214 18.5123 13.7122 20.2725 13.7702 21.373H9.32596C8.87352 21.3645 8.42385 21.445 8.00303 21.6098C7.58221 21.7747 7.1986 22.0206 6.87444 22.3334C6.55027 22.6462 6.29199 23.0196 6.11456 23.4319C5.93713 23.8443 5.84409 24.2874 5.84082 24.7357V28.4066C5.84934 28.6887 5.96947 28.9562 6.17529 29.1514C6.3811 29.3465 6.65612 29.4537 6.94101 29.4498ZM8.02673 27.3634V24.7357C8.03002 24.5719 8.06587 24.4103 8.13222 24.2601C8.19858 24.11 8.29414 23.9743 8.41344 23.8608C8.53275 23.7473 8.67347 23.6582 8.82756 23.5985C8.98165 23.5389 9.14609 23.5099 9.31149 23.5132H14.5229C14.6972 23.5141 14.8693 23.4743 15.0252 23.3971C15.1811 23.3198 15.3165 23.2074 15.4204 23.0687C15.735 22.6508 15.9255 22.1541 15.9705 21.6347C15.9742 21.5966 15.9742 21.5582 15.9705 21.52C15.9705 20.8604 15.6629 17.9351 14.6568 16.8597C13.8144 15.8447 13.3257 14.5873 13.2635 13.2747C13.2624 12.6183 13.4022 11.9691 13.6736 11.3702C13.945 10.7713 14.3418 10.2364 14.8378 9.80097C15.3468 9.35644 15.9403 9.0171 16.5836 8.80287C17.2268 8.58864 17.9067 8.50383 18.5835 8.55343C18.6377 8.55701 18.6921 8.55701 18.7463 8.55343C19.4183 8.50411 20.0935 8.58741 20.7328 8.79848C21.372 9.00956 21.9626 9.34421 22.4703 9.78305C22.9602 10.2049 23.3556 10.7236 23.6311 11.3058C23.9066 11.8879 24.0561 12.5208 24.07 13.1636C24.0171 14.4724 23.5399 15.7295 22.7092 16.7485C21.6886 17.8921 21.3846 20.7923 21.3521 21.4555C21.3484 21.5008 21.3484 21.5464 21.3521 21.5917C21.4057 22.1004 21.5956 22.5855 21.9022 22.997C22.0066 23.1359 22.1426 23.2486 22.2992 23.3258C22.4557 23.403 22.6284 23.4427 22.8033 23.4415H28.0147C28.1813 23.4363 28.3473 23.4638 28.5031 23.5226C28.6588 23.5814 28.8013 23.6702 28.9221 23.7839C29.043 23.8976 29.1399 24.034 29.2071 24.185C29.2744 24.3361 29.3107 24.4989 29.314 24.664V27.3634H8.02673Z" fill="#3DAB9A"/>
<path d="M30.4002 31.5156H6.87638C6.73808 31.5156 6.60114 31.5426 6.47336 31.595C6.34559 31.6475 6.22949 31.7243 6.1317 31.8212C6.03391 31.918 5.95633 32.033 5.90341 32.1596C5.85048 32.2862 5.82324 32.4218 5.82324 32.5588C5.82324 32.6958 5.85048 32.8315 5.90341 32.958C5.95633 33.0846 6.03391 33.1996 6.1317 33.2965C6.22949 33.3934 6.34559 33.4702 6.47336 33.5226C6.60114 33.5751 6.73808 33.602 6.87638 33.602H30.4002C30.5385 33.602 30.6754 33.5751 30.8032 33.5226C30.931 33.4702 31.0471 33.3934 31.1449 33.2965C31.2427 33.1996 31.3202 33.0846 31.3732 32.958C31.4261 32.8315 31.4533 32.6958 31.4533 32.5588C31.4533 32.4218 31.4261 32.2862 31.3732 32.1596C31.3202 32.033 31.2427 31.918 31.1449 31.8212C31.0471 31.7243 30.931 31.6475 30.8032 31.595C30.6754 31.5426 30.5385 31.5156 30.4002 31.5156Z" fill="#3DAB9A"/>
</svg>
