<svg width="14" height="14" viewBox="0 0 14 14" fill="none" xmlns="http://www.w3.org/2000/svg">
<path d="M7.00101 0.78125C9.14153 0.781295 10.8759 2.51575 10.876 4.65625C10.876 5.94842 10.243 7.09375 9.26957 7.79688C9.27571 7.79994 9.28199 7.80167 9.28812 7.80469C9.98595 8.09999 10.6201 8.52809 11.1553 9.06445C11.6922 9.5993 12.1203 10.2335 12.4151 10.9316C12.7057 11.6175 12.8604 12.344 12.876 13.0908C12.8764 13.1075 12.8733 13.1241 12.8672 13.1396C12.8611 13.1552 12.8525 13.1697 12.8409 13.1816C12.8293 13.1935 12.8151 13.2025 12.7998 13.209C12.7845 13.2155 12.7677 13.2187 12.751 13.2188H11.8135C11.7448 13.2188 11.6901 13.1654 11.6885 13.0967C11.6572 11.8906 11.1725 10.7614 10.3164 9.90527C9.43052 9.01935 8.25411 8.53127 7.00101 8.53125C5.74789 8.53125 4.57152 9.01934 3.68558 9.90527C2.82946 10.7614 2.34486 11.8906 2.31351 13.0967C2.31195 13.1638 2.25722 13.2187 2.18851 13.2188H1.25101C1.23433 13.2188 1.21756 13.2155 1.20219 13.209C1.18693 13.2025 1.17275 13.1935 1.16117 13.1816C1.14954 13.1697 1.1409 13.1551 1.1348 13.1396C1.12871 13.1241 1.1256 13.1075 1.12601 13.0908C1.14036 12.3487 1.29683 11.6158 1.58695 10.9326C1.88226 10.2349 2.31042 9.60059 2.84672 9.06543C3.38568 8.52502 4.0141 8.10187 4.7139 7.80664C4.72005 7.80362 4.72631 7.8019 4.73246 7.79883C3.75902 7.09414 3.12601 5.94844 3.12601 4.65625C3.12613 2.51573 4.86046 0.78125 7.00101 0.78125ZM7.00101 1.96875C6.28383 1.96875 5.60844 2.24902 5.10062 2.75684C4.59308 3.26456 4.31357 3.9393 4.31351 4.65625C4.31351 5.3734 4.59285 6.04884 5.10062 6.55664C5.60844 7.06445 6.28383 7.34375 7.00101 7.34375C7.71817 7.34373 8.39361 7.06443 8.9014 6.55664C9.40912 6.04885 9.68851 5.37337 9.68851 4.65625C9.68846 3.93934 9.4089 3.26455 8.9014 2.75684C8.39361 2.24904 7.71817 1.96877 7.00101 1.96875Z" fill="black" fill-opacity="0.85"/>
</svg>
