<?xml version="1.0" encoding="UTF-8"?>
<svg id="_图层_1" data-name="图层 1" xmlns="http://www.w3.org/2000/svg" xmlns:xlink="http://www.w3.org/1999/xlink" viewBox="0 0 1221.61 272.95">
  <defs>
    <style>
      .cls-1 {
        fill: url(#_未命名的渐变_11);
      }

      .cls-1, .cls-2, .cls-3, .cls-4, .cls-5, .cls-6, .cls-7, .cls-8, .cls-9 {
        stroke-width: 0px;
      }

      .cls-2 {
        fill: #128d77;
      }

      .cls-3 {
        fill: #231815;
      }

      .cls-4 {
        fill: url(#_未命名的渐变_11-2);
      }

      .cls-5 {
        fill: url(#_未命名的渐变_11-3);
      }

      .cls-6 {
        fill: url(#_未命名的渐变_11-4);
      }

      .cls-7 {
        fill: url(#_未命名的渐变_11-5);
      }

      .cls-8 {
        fill: url(#_未命名的渐变_6);
      }

      .cls-9 {
        fill: url(#_未命名的渐变_6-2);
      }
    </style>
    <linearGradient id="_未命名的渐变_11" data-name="未命名的渐变 11" x1="46.02" y1="-211.28" x2="30.69" y2="-134.82" gradientTransform="translate(202.1 328.61) rotate(-60.2)" gradientUnits="userSpaceOnUse">
      <stop offset="0" stop-color="#1a9d84"/>
      <stop offset="1" stop-color="#084e48"/>
    </linearGradient>
    <linearGradient id="_未命名的渐变_11-2" data-name="未命名的渐变 11" x1="37.02" y1="71.21" x2="38.74" y2="173.13" gradientTransform="matrix(1,0,0,1,0,0)" xlink:href="#_未命名的渐变_11"/>
    <linearGradient id="_未命名的渐变_11-3" data-name="未命名的渐变 11" x1="-23.22" y1="19.49" x2="-23.22" y2="148.12" gradientTransform="translate(178.69 33.07) rotate(60)" xlink:href="#_未命名的渐变_11"/>
    <linearGradient id="_未命名的渐变_11-4" data-name="未命名的渐变 11" x1="-34.58" y1=".19" x2="-34.58" y2="128.82" gradientTransform="translate(218.26 133.98) rotate(120)" xlink:href="#_未命名的渐变_11"/>
    <linearGradient id="_未命名的渐变_11-5" data-name="未命名的渐变 11" x1="-3.74" y1="-54.89" x2="-3.74" y2="73.74" gradientTransform="translate(203.65 162.66) rotate(-180)" xlink:href="#_未命名的渐变_11"/>
    <linearGradient id="_未命名的渐变_6" data-name="未命名的渐变 6" x1="120.71" y1="272.87" x2="120.71" y2="272.86" gradientUnits="userSpaceOnUse">
      <stop offset="0" stop-color="#084e48"/>
      <stop offset="1" stop-color="#1a9d84"/>
    </linearGradient>
    <linearGradient id="_未命名的渐变_6-2" data-name="未命名的渐变 6" x1="181.4" y1="200.1" x2="119.73" y2="241.7" xlink:href="#_未命名的渐变_6"/>
  </defs>
  <g>
    <g>
      <path class="cls-2" d="M378.62,103.29h20.2c.42,0,.63.14.63.42v17.04c0,11.64-4.49,22.76-13.46,33.34-8.98,10.59-21.32,19.39-37.03,26.4-15.71,7.01-33.31,11.29-52.8,12.83-.42,0-.63-.14-.63-.42l-1.47-19.35c0-.29.14-.42.42-.42,16.69-1.26,31.38-4.52,44.08-9.78,12.69-5.26,22.44-11.64,29.24-19.14,6.8-7.5,10.2-15.32,10.2-23.46v-17.04c0-.28.21-.42.63-.42ZM468.34,6.41c.07.08.1.18.1.32v91.3c0,.14-.04.25-.1.32-.07.07-.18.1-.32.1h-160.72c-.29,0-.42-.13-.42-.42v-18.3c0-.42.13-.63.42-.63h139.47V25.45h-139.47c-.29,0-.42-.14-.42-.42V6.73c0-.28.13-.42.42-.42h160.72c.14,0,.25.04.32.1ZM329.49,106.55c.07.07.11.25.11.53l10.73,38.5c-.14.14-.35.35-.63.63l-19.36,5.05c-.28.14-.46.17-.53.1-.07-.07-.1-.24-.1-.53l-10.73-38.5c.13-.28.35-.49.63-.63l19.35-5.05c.28-.13.46-.17.53-.1ZM457.71,43.54v17.67c0,.28-.21.42-.63.42h-139.68c-.29,0-.42-.14-.42-.42v-17.67c0-.28.13-.42.42-.42h139.68c.42,0,.63.14.63.42ZM399.23,120.86c.14.07.21.25.21.53.14,7.86,3.61,15.5,10.41,22.93,6.8,7.44,16.52,13.78,29.14,19.04,12.62,5.26,27.21,8.52,43.75,9.78.42,0,.63.14.63.42l-1.47,19.35c0,.28-.14.42-.42.42-19.49-1.55-37.1-5.82-52.8-12.83-15.71-7.02-28.05-15.78-37.03-26.3-8.98-10.52-13.53-21.38-13.67-32.61,0-.28.07-.49.21-.63.14-.14.28-.21.42-.21h20.2c.14,0,.28.04.42.11ZM468.44,112.33l-10.73,38.5c0,.29-.04.46-.1.53-.08.07-.25.04-.53-.1l-19.36-5.05c-.28-.28-.49-.49-.63-.63l10.73-38.5c0-.28.04-.46.11-.53.07-.07.24-.03.53.1l19.35,5.05c.28.14.49.35.63.63Z"/>
      <path class="cls-2" d="M578.97,80.15v11.99h47.54c.14,0,.25.04.32.11.07.07.1.18.1.32,1.82,30.29-4.77,53.68-19.77,70.16-15.01,16.48-36.68,26.68-65,30.61-.56,0-.84-.14-.84-.42l-2.73-18.93c0-.42.14-.63.42-.63,21.46-2.94,37.72-9.22,48.8-18.82,11.08-9.61,17.32-23.67,18.72-42.18h-47.33c-.28,0-.42-.14-.42-.42v-31.77c0-.28.14-.42.42-.42h19.36c.28,0,.42.14.42.42ZM727.39,51.86c.07.07.1.18.1.32v32.82c0,.42-.14.63-.42.63h-19.36c-.28,0-.42-.21-.42-.63v-14.73h-146.41v14.73c0,.42-.14.63-.42.63h-19.36c-.28,0-.42-.21-.42-.63v-32.82c0-.14.03-.25.1-.32s.17-.11.32-.11h185.97c.14,0,.24.04.32.11ZM560.04,115.28l18.09,32.19c.14.28.07.56-.21.84l-16.62,9.26c-.28.28-.49.21-.63-.21l-18.09-32.19c-.14-.28-.07-.56.21-.84l16.62-9.46c.28-.14.49,0,.63.42ZM717.81,1.26c.42,0,.63.14.63.42l2.94,17.25c0,.28-.21.5-.63.63-23.14,3.51-51.54,5.26-85.2,5.26h-86.88c-.29,0-.42-.14-.42-.42V6.73c0-.28.13-.42.42-.42h86.88c31.98,0,59.39-1.68,82.25-5.05ZM588.65,31.76l6.31,26.51c0,.28-.14.42-.42.42l-19.56,4.42c-.42,0-.63-.21-.63-.63l-6.31-26.3c0-.42.21-.63.63-.63l19.35-4.21c.42-.14.63,0,.63.42ZM644.6,32.4v27.98c0,.28-.21.42-.63.42h-19.78c-.42,0-.63-.14-.63-.42v-27.98c0-.42.21-.63.63-.63h19.78c.42,0,.63.21.63.63ZM725.39,95.72v19.36c0,.28-.21.42-.63.42h-88.78c-.28,0-.42-.14-.42-.42v-19.36c0-.28.14-.42.42-.42h88.78c.42,0,.63.14.63.42ZM655.12,124.96v26.93h73.84c.42,0,.63.14.63.42v19.36c0,.28-.21.42-.63.42h-92.35c-.14,0-.25-.04-.31-.11-.08-.07-.11-.17-.11-.31v-46.7c0-.28.14-.42.42-.42h17.88c.42,0,.63.14.63.42ZM700.14,36.18l-6.31,26.3c0,.42-.21.63-.63.63l-19.56-4.42c-.29,0-.42-.14-.42-.42l6.31-26.51c0-.42.21-.56.63-.42l19.35,4.21c.42,0,.63.21.63.63ZM695.51,81.2v111.49c0,.28-.14.42-.42.42h-19.57c-.28,0-.42-.14-.42-.42v-111.49c0-.28.14-.42.42-.42h19.57c.28,0,.42.14.42.42Z"/>
      <path class="cls-2" d="M808.78,86.67v26.93c0,24.82-2.31,47.54-6.94,68.16-.14.42-.42.63-.84.63l-17.46-4c-.29,0-.42-.21-.42-.63,4.49-19.63,6.73-41.03,6.73-64.16v-26.93c0-.28.14-.42.42-.42h18.09c.28,0,.42.14.42.42ZM863.9,54.49v19.77c0,.29-.21.42-.63.42h-76.99c-.28,0-.42-.14-.42-.42v-19.77c0-.28.14-.42.42-.42h76.99c.42,0,.63.14.63.42ZM861.58,5.68v19.56c0,.42-.14.63-.42.63h-72.58c-.42,0-.63-.21-.63-.63V5.68c0-.28.21-.42.63-.42h72.58c.28,0,.42.14.42.42ZM841.81,15.99v176.29c0,.42-.14.63-.42.63h-20.2c-.28,0-.42-.21-.42-.63V15.99c0-.28.14-.42.42-.42h20.2c.28,0,.42.14.42.42ZM867.26,110.02l-11.15,15.99c-.28.42-.49.49-.63.21l-29.66-20.41c-.28-.28-.35-.56-.21-.84l11.15-15.99c.28-.42.56-.49.84-.21l29.45,20.41c.42.28.49.56.21.84ZM976.86,124.96v19.77c0,.42-.14.63-.42.63h-109.39c-.28,0-.42-.21-.42-.63v-19.77c0-.42.14-.63.42-.63h109.39c.28,0,.42.21.42.63ZM920.91,82.89l-8.62,17.25c-.28.42-.56.56-.84.42l-41.86-21.45c-.28-.14-.35-.35-.21-.63l8.83-17.46c.14-.28.35-.35.63-.21l41.86,21.24c.28.29.35.56.21.84ZM921.96,32.61l-8.62,17.25c-.29.42-.56.56-.84.42l-41.86-21.46c-.29-.14-.35-.35-.21-.63l8.83-17.46c.28-.28.49-.35.63-.21l41.86,21.24c.42.29.49.56.21.84ZM955.2,1.05v191.23c0,.42-.21.63-.63.63h-19.99c-.42,0-.63-.21-.63-.63V1.05c0-.28.21-.42.63-.42h19.99c.42,0,.63.14.63.42Z"/>
      <path class="cls-2" d="M1092.65,35.13v19.78c0,.28-.21.42-.63.42h-62.27c-.28,0-.42-.14-.42-.42v-19.78c0-.42.14-.63.42-.63h62.27c.42,0,.63.21.63.63ZM1092.65,97.19v19.78c0,.28-.21.42-.63.42h-62.27c-.28,0-.42-.14-.42-.42v-19.78c0-.42.14-.63.42-.63h62.27c.42,0,.63.21.63.63ZM1073.3.63v189.75c0,.14-.04.24-.11.32-.07.07-.18.1-.32.1h-38.29c-.42,0-.63-.14-.63-.42v-20.62c0-.42.21-.63.63-.63h17.67V.63c0-.28.21-.42.63-.42h19.99c.28,0,.42.14.42.42ZM1217.29,71.84c.07.07.11.25.11.53-6.03,31.41-18.94,57.36-38.71,77.83-19.78,20.48-45.79,35.27-78.05,44.39-.14.14-.35.07-.63-.21l-5.26-19.36c-.14-.14,0-.35.42-.63,24.4-7.01,44.42-17.21,60.06-30.61,15.64-13.39,27.17-30.4,34.6-51.01h-86.67c-.28,0-.42-.21-.42-.63v-19.77c0-.42.14-.63.42-.63h113.81c.13,0,.24.04.31.11ZM1220.98,23.56v19.36c0,.42-.21.63-.63.63h-120.96c-.28,0-.42-.21-.42-.63v-19.36c0-.28.14-.42.42-.42h120.96c.42,0,.63.14.63.42ZM1126.94,95.3c10.1,21.18,22.86,38.29,38.29,51.33,15.43,13.05,34.01,22.3,55.75,27.77.42.28.63.49.63.63l-5.05,19.36c0,.14-.04.24-.1.32-.07.07-.18.03-.32-.11-24.68-6.17-46.07-16.86-64.16-32.08-18.09-15.22-32.75-34.61-43.96-58.17-.14-.14-.08-.35.21-.63l17.88-8.62c.28-.28.56-.21.84.21ZM1170.7.42v81.41c0,.29-.14.42-.42.42h-20.2c-.42,0-.63-.13-.63-.42V.42c0-.28.21-.42.63-.42h20.2c.28,0,.42.14.42.42Z"/>
    </g>
    <g>
      <path class="cls-3" d="M294.05,272.05v-47.31h8.45v40.21h19.66v7.11h-28.11Z"/>
      <path class="cls-3" d="M374.5,272.05v-47.31h8.45v47.31h-8.45Z"/>
      <path class="cls-3" d="M439,272.05v-47.31h8.64l14.66,26.51,4.93,10.12h.32c-.25-2.43-.51-5.07-.77-7.91-.25-2.84-.38-5.58-.38-8.23v-20.49h8v47.31h-8.64l-14.6-26.57-4.93-9.99h-.26c.17,2.48.38,5.09.64,7.84.25,2.76.38,5.45.38,8.1v20.62h-8Z"/>
      <path class="cls-3" d="M544.41,272.95c-3.24,0-6.34-.61-9.29-1.83-2.94-1.21-5.52-2.91-7.74-5.09l4.86-5.82c1.71,1.62,3.64,2.93,5.8,3.9,2.15.98,4.32,1.47,6.5,1.47,2.69,0,4.73-.55,6.11-1.67,1.38-1.11,2.08-2.56,2.08-4.35,0-1.32-.32-2.39-.96-3.2-.64-.81-1.51-1.51-2.59-2.08-1.09-.58-2.34-1.17-3.74-1.76l-6.47-2.76c-1.54-.64-3.04-1.49-4.52-2.56-1.47-1.07-2.69-2.43-3.65-4.07-.96-1.64-1.44-3.6-1.44-5.86,0-2.56.68-4.85,2.05-6.85,1.37-2.01,3.26-3.6,5.67-4.77s5.15-1.76,8.23-1.76c2.77,0,5.44.54,8,1.6,2.56,1.07,4.76,2.54,6.59,4.42l-4.35,5.38c-1.5-1.28-3.06-2.28-4.71-3.01-1.64-.72-3.49-1.09-5.54-1.09-2.22,0-3.99.49-5.31,1.47-1.32.98-1.98,2.33-1.98,4.04,0,1.24.35,2.26,1.05,3.07.71.81,1.62,1.48,2.76,2.01,1.13.54,2.36,1.08,3.68,1.63l6.34,2.63c1.88.77,3.53,1.72,4.96,2.85,1.43,1.13,2.55,2.5,3.36,4.1.81,1.6,1.21,3.56,1.21,5.86,0,2.56-.67,4.91-2.01,7.04-1.34,2.13-3.29,3.84-5.83,5.12-2.54,1.28-5.58,1.92-9.12,1.92Z"/>
      <path class="cls-3" d="M614.11,272.05v-47.31h8.45v19.01h19.08v-19.01h8.39v47.31h-8.39v-20.94h-19.08v20.94h-8.45Z"/>
      <path class="cls-3" d="M723.88,272.95c-2.73,0-5.21-.41-7.43-1.22-2.22-.81-4.11-2.07-5.67-3.78-1.56-1.71-2.76-3.94-3.59-6.72-.83-2.77-1.25-6.08-1.25-9.92v-26.57h8.39v27.21c0,3.38.4,6.07,1.21,8.07.81,2.01,1.93,3.43,3.36,4.29,1.43.86,3.08,1.28,4.96,1.28s3.67-.42,5.12-1.28c1.45-.85,2.59-2.28,3.43-4.29.83-2.01,1.25-4.69,1.25-8.07v-27.21h8.13v26.57c0,3.84-.42,7.15-1.25,9.92-.83,2.78-2.03,5.02-3.59,6.72-1.56,1.71-3.43,2.97-5.63,3.78-2.2.81-4.69,1.22-7.46,1.22Z"/>
      <path class="cls-3" d="M797.61,272.05v-47.31h8.64l14.66,26.51,4.93,10.12h.32c-.25-2.43-.51-5.07-.77-7.91-.25-2.84-.38-5.58-.38-8.23v-20.49h8v47.31h-8.64l-14.6-26.57-4.93-9.99h-.26c.17,2.48.38,5.09.64,7.84.25,2.76.38,5.45.38,8.1v20.62h-8Z"/>
      <path class="cls-3" d="M942.75,272.05v-40.21h-13.57v-7.11h35.73v7.11h-13.64v40.21h-8.52Z"/>
      <path class="cls-3" d="M1016.92,272.05v-47.31h28.49v7.11h-20.04v12.04h16.97v7.11h-16.97v13.96h20.75v7.11h-29.2Z"/>
      <path class="cls-3" d="M1118.75,272.95c-2.99,0-5.76-.54-8.32-1.6-2.56-1.06-4.82-2.64-6.79-4.74-1.97-2.09-3.49-4.65-4.58-7.68-1.09-3.03-1.63-6.49-1.63-10.37s.57-7.34,1.7-10.37c1.13-3.03,2.69-5.61,4.68-7.74,1.98-2.13,4.29-3.76,6.91-4.87,2.63-1.11,5.43-1.67,8.42-1.67s5.64.61,7.94,1.83c2.3,1.21,4.2,2.61,5.7,4.19l-4.48,5.38c-1.24-1.19-2.58-2.18-4.03-2.94-1.45-.77-3.11-1.15-4.99-1.15-2.52,0-4.78.69-6.79,2.08-2.01,1.38-3.56,3.35-4.67,5.89-1.11,2.54-1.67,5.58-1.67,9.12s.54,6.67,1.6,9.25c1.06,2.58,2.57,4.57,4.51,5.95,1.94,1.39,4.22,2.08,6.82,2.08,2.09,0,3.97-.45,5.64-1.34,1.66-.9,3.16-2.07,4.48-3.52l4.48,5.31c-1.92,2.26-4.12,3.98-6.6,5.15-2.47,1.17-5.25,1.76-8.32,1.76Z"/>
      <path class="cls-3" d="M1185.69,272.05v-47.31h8.45v19.01h19.08v-19.01h8.39v47.31h-8.39v-20.94h-19.08v20.94h-8.45Z"/>
    </g>
  </g>
  <g>
    <path class="cls-1" d="M16.75,217.12l89.94,51.5c4.81,2.75,10.13,4.18,15.48,4.32l-.17-47.02c-.08-22.22-12.01-42.72-31.29-53.76l-60.56-34.68c-9.35-5.35-19.74-8.09-30.16-8.21l.21,59.43c.04,11.75,6.35,22.58,16.54,28.42Z"/>
    <path class="cls-4" d="M0,84.79v103.64c0,5.54,1.41,10.87,3.95,15.58l40.72-23.51c19.25-11.11,31.1-31.65,31.1-53.87V56.85c0-10.78-2.79-21.15-7.86-30.25l-51.47,29.72C6.27,62.19,0,73.05,0,84.79Z"/>
    <path class="cls-5" d="M105.77,4.62L16.01,56.44c-4.8,2.77-8.71,6.65-11.52,11.21l40.72,23.51c19.25,11.11,42.96,11.11,62.2,0l60.44-34.89c9.33-5.39,16.92-13,22.27-21.93l-51.47-29.72c-10.17-5.87-22.71-5.87-32.88,0Z"/>
    <path class="cls-6" d="M228.84,56.41L139.08,4.58c-4.8-2.77-10.12-4.22-15.47-4.37v47.02c0,22.22,11.86,42.76,31.1,53.87l60.44,34.89c9.33,5.39,19.71,8.16,30.13,8.32v-59.43c0-11.75-6.27-22.6-16.44-28.48Z"/>
    <path class="cls-7" d="M245.28,188.11v-103.64c0-5.54-1.41-10.87-3.95-15.58l-40.72,23.51c-19.25,11.11-31.1,31.65-31.1,53.87v69.79c0,10.78,2.79,21.15,7.86,30.25l51.47-29.72c10.17-5.87,16.44-16.73,16.44-28.48Z"/>
    <g>
      <path class="cls-8" d="M120.76,272.87s-.07,0-.1,0c.03,0,.07,0,.1,0Z"/>
      <path class="cls-9" d="M200.36,182.46c-19.18-11.23-42.89-11.37-62.2-.37l-24.07,13.7c5.07,9.06,7.88,19.39,7.92,30.13l.17,47c5.89.15,11.81-1.27,17.11-4.28l90.07-51.28c4.81-2.74,8.75-6.6,11.59-11.14l-40.58-23.75Z"/>
    </g>
  </g>
</svg>